# xmcd CD database file
#
# Track frame offsets:
#	150
#	14878
#	37031
#	52991
#	68724
#	83159
#	104895
#	121271
#	140219
#	158067
#
# Disc length: 2362 seconds
#
# Revision: 3
# Processed by: cddbd v1.5.2PL0 Copyright (c) Steve Scherf et al.
# Submitted via: CDex 1.70beta2
#
DISCID=9009380a
DTITLE=Baker - Baker
DYEAR=2009
DGENRE=Country
TTITLE0=Why I'm Leavin'
TTITLE1=Your Mistakes
TTITLE2=My Kinda' Girl
TTITLE3=Rain
TTITLE4=What's Going On
TTITLE5=Ride
TTITLE6=Left out of Nowhere
TTITLE7=Last Saturday Night
TTITLE8=Expectations
TTITLE9=U
EXTD=YEAR: 2009
EXTT0=
EXTT1=
EXTT2=
EXTT3=
EXTT4=
EXTT5=
EXTT6=
EXTT7=
EXTT8=
EXTT9=
PLAYORDER=
